#!OML:ASF H:\Male1\Project 1\Capture day 1\Session 1\Male1.ASF
:FULLY-SPECIFIED
:DEGREES
285
root 20.0584 15.4447 -0.845613 -159.996 -85.1307 159.745
lowerback 8.19446 1.59745 0.141034
upperback 4.02155 1.98026 -1.46846
thorax -0.377261 0.948298 -1.75556
lowerneck -5.4381 4.02758 8.42674
upperneck -2.25804 4.85252 -7.95265
head 0.685912 2.29293 -3.98868
rclavicle 2.81032e-014 -9.74045e-015
rhumerus -42.7906 31.3437 -94.7853
rradius 68.5342
rwrist -36.1941
rhand -24.4106 -3.05159
rfingers 7.12502
rthumb 2.08084 -33.0212
lclavicle 2.81032e-014 -9.74045e-015
lhumerus -32.4784 -1.22292 83.5861
lradius 42.1132
lwrist -2.30042
lhand -17.9489 2.23688
lfingers 7.12502
lthumb 8.3196 32.0531
rfemur -5.71352 13.0981 19.6574
rtibia 24.6976
rfoot -25.6817 -29.2203
rtoes -27.5301
lfemur -11.3234 -10.5307 -13.8027
ltibia 31.2065
lfoot -19.354 18.4041
ltoes -13.192
286
root 20.0759 15.4399 -0.812042 -161.472 -85.2089 161.256
lowerback 8.1431 1.56346 0.172333
upperback 4.02103 1.93965 -1.4114
thorax -0.351815 0.928506 -1.70944
lowerneck -5.31973 4.06224 8.43215
upperneck -2.34351 4.90389 -7.92804
head 0.640849 2.32075 -3.98169
rclavicle 1.15047e-014 1.33186e-014
rhumerus -42.6783 30.8858 -94.66
rradius 68.3295
rwrist -36.2297
rhand -24.4081 -3.27415
rfingers 7.12502
rthumb 2.08324 -33.2437
lclavicle 1.15047e-014 1.33186e-014
lhumerus -31.9602 -2.18976 83.9879
lradius 41.8736
lwrist -2.29325
lhand -17.7727 2.71606
lfingers 7.12502
lthumb 8.48974 32.5254
rfemur -5.93957 13.045 19.6406
rtibia 24.8347
rfoot -25.466 -29.3073
rtoes -28.068
lfemur -10.6985 -10.9075 -13.5494
ltibia 30.3934
lfoot -19.1436 18.5186
ltoes -13.6177
287
root 20.0913 15.4348 -0.773571 -163.016 -85.2718 162.854
lowerback 8.06092 1.53947 0.185661
upperback 4.02121 1.91146 -1.35008
thorax -0.309019 0.914825 -1.649
lowerneck -5.21694 4.09275 8.44828
upperneck -2.4123 4.94888 -7.90534
head 0.603838 2.34508 -3.97745
rclavicle -1.58779e-014 2.04748e-014
rhumerus -42.5065 30.4091 -94.5158
rradius 67.9976
rwrist -36.2795
rhand -24.5277 -3.5128
rfingers 7.12502
rthumb 1.96772 -33.4835
lclavicle -1.58779e-014 2.04748e-014
lhumerus -31.4157 -3.18215 84.3701
lradius 41.5438
lwrist -2.21517
lhand -17.7041 3.13922
lfingers 7.12502
lthumb 8.5559 32.9459
rfemur -6.18994 12.9827 19.5931
rtibia 24.9797
rfoot -25.2675 -29.3748
rtoes -28.5955
lfemur -10.105 -11.321 -13.3734
ltibia 29.5304
lfoot -18.8881 18.6404
ltoes -13.7295
288
root 20.105 15.4286 -0.729881 -164.506 -85.3299 164.416
lowerback 7.96106 1.52299 0.185862
upperback 4.01191 1.89274 -1.2908
thorax -0.266315 0.905881 -1.58379
lowerneck -5.11184 4.12112 8.48658
upperneck -2.46955 4.99081 -7.88998
head 0.57086 2.36784 -3.98036
rclavicle 1.0461e-014 3.97569e-016
rhumerus -42.3158 29.9244 -94.3624
rradius 67.5753
rwrist -36.3608
rhand -24.6836 -3.77553
rfingers 7.12502
rthumb 1.81716 -33.7475
lclavicle 1.0461e-014 3.97569e-016
lhumerus -30.8598 -4.25902 84.7543
lradius 41.0968
lwrist -2.05837
lhand -17.8957 3.52273
lfingers 7.12502
lthumb 8.37099 33.3369
rfemur -6.42948 12.9026 19.5066
rtibia 25.1132
rfoot -25.2478 -29.2971
rtoes -28.7099
lfemur -9.56167 -11.8148 -13.2872
ltibia 28.6446
lfoot -18.6695 18.873
ltoes -13.4579
289
root 20.1166 15.4224 -0.681138 -165.871 -85.3791 165.884
lowerback 7.82887 1.51546 0.168976
upperback 3.98348 1.8856 -1.23932
thorax -0.225465 0.902885 -1.51738
lowerneck -5.00172 4.13858 8.5439
upperneck -2.49478 5.01958 -7.86956
head 0.546635 2.38436 -3.98562
rclavicle 5.09386e-015 -5.76476e-015
rhumerus -42.1319 29.4558 -94.2069
rradius 67.0905
rwrist -36.4897
rhand -24.7757 -4.06201
rfingers 7.12502
rthumb 1.72816 -34.0348
lclavicle 5.09386e-015 -5.76476e-015
lhumerus -30.3152 -5.47553 85.1612
lradius 40.5321
lwrist -1.80607
lhand -18.4316 3.92093
lfingers 7.12502
lthumb 7.8538 33.7551
rfemur -6.67633 12.8052 19.3754
rtibia 25.2183
rfoot -25.2616 -29.1695
rtoes -28.7225
lfemur -9.09943 -12.4262 -13.293
ltibia 27.7733
lfoot -18.5706 19.2992
ltoes -12.7406
290
root 20.1255 15.4169 -0.627321 -167.15 -85.4041 167.296
lowerback 7.64842 1.52392 0.136483
upperback 3.93434 1.89979 -1.19983
thorax -0.178881 0.910866 -1.45517
lowerneck -4.8672 4.15044 8.62028
upperneck -2.5087 5.04291 -7.83281
head 0.521268 2.39881 -3.98947
rclavicle -1.78906e-015 -2.78299e-015
rhumerus -41.9708 29.034 -94.0574
rradius 66.5597
rwrist -36.6578
rhand -24.744 -4.3879
rfingers 7.12502
rthumb 1.75877 -34.3604
lclavicle -1.78906e-015 -2.78299e-015
lhumerus -29.8006 -6.85604 85.6012
lradius 39.8565
lwrist -1.47973
lhand -19.2496 4.38157
lfingers 7.12502
lthumb 7.06423 34.2437
rfemur -6.92921 12.7038 19.2035
rtibia 25.2834
rfoot -25.2282 -29.037
rtoes -28.7923
lfemur -8.72829 -13.1705 -13.3871
ltibia 26.965
lfoot -18.6928 19.9719
ltoes -11.7222
291
root 20.1324 15.4127 -0.568955 -168.426 -85.4097 168.738
lowerback 7.40745 1.54793 0.0902254
upperback 3.86973 1.93502 -1.16882
thorax -0.114446 0.929694 -1.39397
lowerneck -4.70411 4.15096 8.7072
upperneck -2.52085 5.05348 -7.77473
head 0.489814 2.40758 -3.98889
rclavicle 2.66371e-014 -5.1684e-015
rhumerus -41.8305 28.6887 -93.9108
rradius 65.9932
rwrist -36.8545
rhand -24.5619 -4.76446
rfingers 7.12502
rthumb 1.9347 -34.7354
lclavicle 2.66371e-014 -5.1684e-015
lhumerus -29.3153 -8.38014 86.0735
lradius 39.0851
lwrist -1.13007
lhand -20.1184 4.92043
lfingers 7.12502
lthumb 6.22552 34.809
rfemur -7.19085 12.6128 19.0083
rtibia 25.3081
rfoot -25.1287 -28.9307
rtoes -28.9683
lfemur -8.46546 -14.0341 -13.5417
ltibia 26.2641
lfoot -19.0482 20.8707
ltoes -10.5913
292
root 20.1379 15.41 -0.506526 -169.544 -85.4039 170.042
lowerback 7.11966 1.58299 0.0174262
upperback 3.79967 1.98406 -1.15029
thorax -0.0298704 0.955375 -1.33023
lowerneck -4.51986 4.13663 8.78745
upperneck -2.5394 5.04645 -7.68027
head 0.449461 2.40808 -3.97524
rclavicle -1.78906e-015 2.98177e-015
rhumerus -41.697 28.4303 -93.7624
rradius 65.3941
rwrist -37.0789
rhand -24.2371 -5.18484
rfingers 7.12502
rthumb 2.24836 -35.1527
lclavicle -1.78906e-015 2.98177e-015
lhumerus -28.8648 -10.0136 86.565
lradius 38.2493
lwrist -0.779504
lhand -20.7595 5.40166
lfingers 7.12502
lthumb 5.60653 35.3075
rfemur -7.44867 12.549 18.7874
rtibia 25.2999
rfoot -24.9636 -28.8862
rtoes -29.2626
lfemur -8.30574 -14.9663 -13.749
ltibia 25.7045
lfoot -19.5385 21.9067
ltoes -9.53961
293
root 20.1434 15.4089 -0.441207 -170.272 -85.4238 170.954
lowerback 6.82672 1.61527 -0.0992106
upperback 3.72929 2.02691 -1.1487
thorax 0.0561984 0.977354 -1.25849
lowerneck -4.3421 4.12145 8.8768
upperneck -2.56678 5.03735 -7.56823
head 0.406908 2.40716 -3.95724
rclavicle -2.3556e-014 1.63003e-014
rhumerus -41.5605 28.2494 -93.6122
rradius 64.7737
rwrist -37.3158
rhand -23.8109 -5.61882
rfingers 7.12502
rthumb 2.66001 -35.582
lclavicle -2.3556e-014 1.63003e-014
lhumerus -28.4483 -11.7028 87.0488
lradius 37.383
lwrist -0.469398
lhand -20.9987 5.68593
lfingers 7.12502
lthumb 5.37562 35.5977
rfemur -7.68915 12.5211 18.5397
rtibia 25.277
rfoot -24.7822 -28.9323
rtoes -29.6024
lfemur -8.24508 -15.8619 -13.9903
ltibia 25.2917
lfoot -20.0131 22.9041
ltoes -8.80058
294
root 20.1491 15.4094 -0.373808 -170.574 -85.4633 171.42
lowerback 6.55075 1.64782 -0.261758
upperback 3.67393 2.06705 -1.16901
thorax 0.14752 0.997048 -1.1834
lowerneck -4.197 4.09677 8.97116
upperneck -2.59495 5.01282 -7.44478
head 0.368327 2.39761 -3.93611
rclavicle 8.00108e-015 5.96354e-016
rhumerus -41.4112 28.1193 -93.453
rradius 64.1591
rwrist -37.5493
rhand -23.319 -6.01861
rfingers 7.12502
rthumb 3.13505 -35.9753
lclavicle 8.00108e-015 5.96354e-016
lhumerus -28.0415 -13.3864 87.4937
lradius 36.5092
lwrist -0.245358
lhand -20.7924 5.7195
lfingers 7.12502
lthumb 5.57481 35.6262
rfemur -7.90021 12.5427 18.267
rtibia 25.2651
rfoot -24.6368 -29.0487
rtoes -29.8961
lfemur -8.24545 -16.6044 -14.2495
ltibia 24.9977
lfoot -20.3556 23.7053
ltoes -8.51579
